<svg width="62" height="35" viewBox="0 0 62 35" fill="none" xmlns="http://www.w3.org/2000/svg">
<path d="M30.2929 34.7071C30.6834 35.0976 31.3166 35.0976 31.7071 34.7071L38.0711 28.3431C38.4616 27.9526 38.4616 27.3195 38.0711 26.9289C37.6805 26.5384 37.0474 26.5384 36.6569 26.9289L31 32.5858L25.3431 26.9289C24.9526 26.5384 24.3195 26.5384 23.9289 26.9289C23.5384 27.3195 23.5384 27.9526 23.9289 28.3431L30.2929 34.7071ZM30 12L30 34H32L32 12H30Z" fill="#5C7D70" fill-opacity="0.5"/>
<path d="M5.13721 6.96094C5.01416 7.62305 4.71387 8.14746 4.23633 8.53418C3.76172 8.9209 3.19189 9.10547 2.52686 9.08789C2.13135 9.0791 1.78564 8.98242 1.48975 8.79785C1.19385 8.61035 0.963867 8.34229 0.799805 7.99365C0.635742 7.64209 0.544922 7.25391 0.527344 6.8291C0.515625 6.58887 0.525879 6.35449 0.558105 6.12598L0.632812 5.59863C0.770508 4.6377 1.10742 3.88037 1.64355 3.32666C2.18262 2.77002 2.8374 2.49902 3.60791 2.51367C4.2085 2.52539 4.68457 2.72021 5.03613 3.09814C5.3877 3.47314 5.57373 3.99463 5.59424 4.6626H4.77246C4.73438 3.76611 4.38281 3.28271 3.71777 3.2124L3.57275 3.20361C3.01904 3.18896 2.55615 3.39551 2.18408 3.82324C1.81494 4.24805 1.57617 4.82959 1.46777 5.56787L1.37109 6.23145L1.34473 6.61816C1.32715 7.15723 1.42236 7.58643 1.63037 7.90576C1.84131 8.22217 2.15332 8.38623 2.56641 8.39795C3.01172 8.4126 3.37939 8.30566 3.66943 8.07715C3.9624 7.84863 4.18506 7.48096 4.3374 6.97412L5.13721 6.96094ZM10.0195 6.04248H7.33008L6.93457 8.31006H10.0635L9.94043 9H5.98975L7.10156 2.60156H11.0083L10.8853 3.2959H7.80469L7.44873 5.35254H10.1382L10.0195 6.04248ZM13.7505 6.41162H12.2739L11.8257 9H10.9951L12.1069 2.60156L14.0317 2.60596C14.7026 2.60889 15.2139 2.77881 15.5654 3.11572C15.917 3.45264 16.0649 3.91113 16.0093 4.49121C15.9771 4.89258 15.8306 5.24561 15.5698 5.55029C15.312 5.85498 14.9678 6.08496 14.5371 6.24023L15.5303 8.94287L15.5259 9H14.647L13.7505 6.41162ZM12.3926 5.72168L13.6055 5.72607C14.0273 5.72607 14.3833 5.61475 14.6733 5.39209C14.9634 5.1665 15.1333 4.86621 15.1831 4.49121C15.2271 4.125 15.1538 3.83789 14.9634 3.62988C14.7729 3.42188 14.4829 3.31201 14.0933 3.30029L12.8145 3.2959L12.3926 5.72168ZM21.353 3.2959H19.3623L18.3735 9H17.5518L18.5405 3.2959H16.5498L16.6729 2.60156H21.4761L21.353 3.2959ZM22.21 9H21.3882L22.5 2.60156H23.3218L22.21 9ZM27.6636 6.17432H25.062L24.5698 9H23.7437L24.8555 2.60156H28.7051L28.582 3.2959H25.5586L25.1807 5.48438H27.7866L27.6636 6.17432ZM29.4961 9H28.6743L29.7861 2.60156H30.6079L29.4961 9ZM35.9077 6.96094C35.7847 7.62305 35.4844 8.14746 35.0068 8.53418C34.5322 8.9209 33.9624 9.10547 33.2974 9.08789C32.9019 9.0791 32.5562 8.98242 32.2603 8.79785C31.9644 8.61035 31.7344 8.34229 31.5703 7.99365C31.4062 7.64209 31.3154 7.25391 31.2979 6.8291C31.2861 6.58887 31.2964 6.35449 31.3286 6.12598L31.4033 5.59863C31.541 4.6377 31.8779 3.88037 32.4141 3.32666C32.9531 2.77002 33.6079 2.49902 34.3784 2.51367C34.979 2.52539 35.4551 2.72021 35.8066 3.09814C36.1582 3.47314 36.3442 3.99463 36.3647 4.6626H35.543C35.5049 3.76611 35.1533 3.28271 34.4883 3.2124L34.3433 3.20361C33.7896 3.18896 33.3267 3.39551 32.9546 3.82324C32.5854 4.24805 32.3467 4.82959 32.2383 5.56787L32.1416 6.23145L32.1152 6.61816C32.0977 7.15723 32.1929 7.58643 32.4009 7.90576C32.6118 8.22217 32.9238 8.38623 33.3369 8.39795C33.7822 8.4126 34.1499 8.30566 34.4399 8.07715C34.7329 7.84863 34.9556 7.48096 35.1079 6.97412L35.9077 6.96094ZM40.4956 7.33008H37.9028L37.0283 9H36.145L39.6211 2.60156H40.3462L41.6118 9H40.7988L40.4956 7.33008ZM38.2676 6.63574H40.3726L39.8408 3.65186L38.2676 6.63574ZM47.2104 3.2959H45.2197L44.231 9H43.4092L44.3979 3.2959H42.4072L42.5303 2.60156H47.3335L47.2104 3.2959ZM48.0674 9H47.2456L48.3574 2.60156H49.1792L48.0674 9ZM51.9478 9.08789C51.5405 9.0791 51.186 8.98096 50.8843 8.79346C50.5854 8.60596 50.3496 8.33057 50.1768 7.96729C50.0039 7.60107 49.9087 7.19092 49.8911 6.73682C49.8735 6.38232 49.9131 5.94434 50.0098 5.42285C50.1064 4.90137 50.2734 4.43115 50.5107 4.01221C50.748 3.59326 51.0366 3.25781 51.3765 3.00586C51.8364 2.66602 52.3608 2.50195 52.9497 2.51367C53.5737 2.52539 54.0659 2.74219 54.4263 3.16406C54.7866 3.58301 54.98 4.15137 55.0063 4.86914C55.0181 5.17676 54.9858 5.56787 54.9097 6.04248C54.8364 6.51709 54.7031 6.95801 54.5098 7.36523C54.3193 7.77246 54.0762 8.11377 53.7803 8.38916C53.2646 8.86963 52.6538 9.10254 51.9478 9.08789ZM54.1934 5.07129C54.2109 4.49414 54.1099 4.04736 53.8901 3.73096C53.6704 3.41162 53.3438 3.24609 52.9102 3.23438C52.5176 3.22266 52.166 3.32812 51.8555 3.55078C51.5479 3.77344 51.2944 4.10742 51.0952 4.55273C50.8989 4.99512 50.7744 5.55615 50.7217 6.23584L50.7085 6.52148C50.6909 7.0957 50.7935 7.54541 51.0161 7.87061C51.2388 8.1958 51.5625 8.36426 51.9873 8.37598C52.541 8.39062 52.9995 8.19141 53.3628 7.77832C53.729 7.3623 53.9722 6.7793 54.0923 6.0293C54.1509 5.66016 54.1846 5.34082 54.1934 5.07129ZM60.4248 9H59.625L57.3398 4.03418L56.4785 9H55.6479L56.7598 2.60156H57.5596L59.8491 7.58936L60.7148 2.60156H61.5366L60.4248 9Z" fill="#5C7D70"/>
</svg>
